# xmcd
#
# Track frame offsets:
#	182
#	12292
#	26255
#	36835
#	50970
#	62532
#	77045
#	89422
#	101110
#	113930
#	123787
#	136405
#	151260
#	164890
#	175250
#	186395
#
# Disc length: 2649 seconds
#
# Revision: 1
# Processed by: cddbd v1.5.2PL0 Copyright (c) Steve Scherf et al.
# Submitted via: audiograbber 1.83.01
#
DISCID=d90a5710
DTITLE=Tom Astor - Das Doppelabum CD1
DYEAR=1900
DGENRE=
TTITLE0=Hallo guten Morgen Deutschland
TTITLE1=International Airport (Frankurt am Main)
TTITLE2=Wenn ein zartes Wesen mit Gefühl
TTITLE3=Die fünfziger Jahre sterben
TTITLE4=Blue Jeans, Rock´n´ Roll und Elvis
TTITLE5=Susie, Susie
TTITLE6=Du bist mein bester Freund
TTITLE7=Ein unbekannter Stuntman
TTITLE8=Wer hat ein Herz, das nie bricht (Some broken hearts never mend)
TTITLE9=Sicht weg, Gas weg
TTITLE10=Junge zieh die Bremse an
TTITLE11=Wir sind wieder schlecht bei Kasse
TTITLE12=Der kleine Trucker
TTITLE13=Die Liebe hat es schwer im dichten Stadtverkehr
TTITLE14=Panamerican Highway
TTITLE15=Ich wünsch Dir Hals- und Beinbruch
EXTD=
EXTT0=
EXTT1=
EXTT2=
EXTT3=
EXTT4=
EXTT5=
EXTT6=
EXTT7=
EXTT8=
EXTT9=
EXTT10=
EXTT11=
EXTT12=
EXTT13=
EXTT14=
EXTT15=
PLAYORDER=
